<svg width="44" height="33" viewBox="0 0 44 33" fill="none" xmlns="http://www.w3.org/2000/svg">
<rect x="0.969971" y="0.469727" width="43" height="32" rx="2" fill="url(#paint0_linear_1_588)"/>
<g clip-path="url(#clip0_1_588)">
<g clip-path="url(#clip1_1_588)">
<g clip-path="url(#clip2_1_588)">
<mask id="mask0_1_588" style="mask-type:luminance" maskUnits="userSpaceOnUse" x="4" y="8" width="37" height="17">
<path d="M40.9014 8.46973H4.13666V24.4697H40.9014V8.46973Z" fill="white"/>
</mask>
<g mask="url(#mask0_1_588)">
<path d="M14.231 8.46973H10.4214C8.73812 8.54931 7.36219 9.22728 6.9649 10.6254C6.75775 11.3545 6.64374 12.1553 6.48175 12.9111C5.65825 16.7542 4.92804 20.7033 4.14032 24.4697H33.7988C36.0917 24.4697 37.6661 23.9852 38.0915 22.1653C38.2891 21.3199 38.4785 20.3625 38.6676 19.4337C39.4047 15.8124 40.1425 12.1913 40.8976 8.46973H14.231Z" fill="#822124"/>
<path d="M13.9337 14.1568C14.093 14.047 14.2982 13.5472 14.0638 13.3391C13.9896 13.2732 13.8654 13.2541 13.6921 13.2834C13.5314 13.3105 13.439 13.3651 13.3762 13.4506C13.2753 13.5881 13.1828 14.0028 13.3391 14.1568C13.4913 14.3068 13.8323 14.2265 13.9337 14.1568ZM11.6666 13.3391C11.5524 14.0798 11.4238 14.806 11.2949 15.5319C10.4671 15.5406 9.62183 15.5727 8.82336 15.5133C8.97416 14.8031 9.08232 14.0503 9.23219 13.3391H8.3402C8.02092 15.1506 7.73042 16.9911 7.3739 18.7654H8.2845C8.4273 17.8553 8.56093 16.9358 8.74904 16.0708C9.52543 16.0517 10.4559 16.0184 11.202 16.0894C11.0482 16.9887 10.8623 17.8557 10.7189 18.7654H11.6295C11.9221 16.9271 12.2303 15.1045 12.5959 13.3391H11.6666ZM24.5447 14.9001C23.8362 14.6139 23.2791 15.0975 23.0209 15.5505C23.0795 15.349 23.1036 15.113 23.151 14.9001H22.4449C22.2722 16.239 22.0178 17.4959 21.7759 18.7654H22.575C22.687 18.0119 22.7354 16.9961 22.9838 16.2752C23.1824 15.6992 23.702 15.2085 24.4519 15.4762C24.4623 15.2637 24.5231 15.1015 24.5447 14.9001ZM24.9906 17.8549C24.9169 17.6645 24.8979 17.3504 24.9163 17.1115C24.9576 16.5745 25.1533 15.9208 25.4553 15.6248C25.8719 15.2164 26.6946 15.284 27.3508 15.5134C27.371 15.2922 27.4155 15.0949 27.4437 14.8816C26.3676 14.7058 25.3464 14.8152 24.805 15.3833C24.2749 15.9395 23.9275 17.2178 24.1731 18.0221C24.4605 18.9634 25.7496 19.0145 26.7933 18.654C26.8395 18.4648 26.8639 18.2539 26.9048 18.0594C26.3344 18.3556 25.2441 18.5096 24.9906 17.8549ZM33.9663 14.9186C33.26 14.5655 32.672 15.1581 32.4425 15.5133C32.5079 15.331 32.5116 15.0869 32.5725 14.9H31.8664C31.676 16.2273 31.4465 17.5154 31.1789 18.7654H31.9966C32.0017 18.253 32.1023 17.8741 32.1823 17.3717C32.3532 16.2989 32.6041 15.1225 33.8549 15.4761C33.8963 15.2947 33.9135 15.0889 33.9663 14.9186ZM13.116 14.9001C13.0944 14.9032 13.0958 14.9295 13.0974 14.9558C12.9213 16.2726 12.683 17.5272 12.4285 18.7654H13.2275C13.4195 17.4397 13.6395 16.1421 13.9151 14.9L13.116 14.9001ZM20.1404 14.8258C19.5631 14.8703 19.075 15.0364 18.7281 15.4019C18.3027 15.85 17.9582 16.8409 18.0592 17.7434C18.2032 19.0308 19.8061 18.9846 21.0882 18.6726C21.1101 18.4466 21.1648 18.2534 21.1997 18.0407C20.6716 18.2383 19.7546 18.5142 19.2112 18.1708C18.8011 17.9114 18.7987 17.2549 18.9325 16.6842C19.7942 16.6567 20.6898 16.6619 21.5527 16.6842C21.6074 16.2796 21.764 15.8386 21.627 15.4391C21.4463 14.9116 20.7991 14.775 20.1404 14.8258ZM20.9023 16.2381H19.0253C19.0848 15.8066 19.473 15.3323 20.0847 15.3089C20.6603 15.2869 21.0725 15.5203 20.9023 16.2381ZM17.1114 14.9001C16.4351 14.646 15.6109 14.9493 15.2535 15.2378C15.2548 15.2505 15.245 15.2522 15.2345 15.2532C15.2405 15.248 15.2472 15.2429 15.2535 15.2378C15.2534 15.2367 15.2533 15.2357 15.2531 15.2346C15.2591 15.1106 15.3028 15.0241 15.3088 14.9001H14.6213C14.3348 16.8064 13.995 18.6594 13.6364 20.4936H14.4355C14.5511 19.7793 14.6275 19.0256 14.7886 18.3566C14.9711 19.0603 16.1627 18.9258 16.6655 18.654C17.7029 18.0928 18.5031 15.4228 17.1114 14.9001ZM16.4796 18.0407C16.0521 18.4935 15.0011 18.4867 14.9186 17.7247C14.8828 17.3932 15.0062 17.0457 15.0674 16.7027C15.1291 16.3556 15.1736 16.0225 15.2345 15.7178C15.6556 15.2036 16.893 15.1415 17.0186 15.9965C17.1274 16.7388 16.8336 17.6657 16.4796 18.0407ZM36.9395 13.2276C36.871 13.8281 36.7795 14.4055 36.6608 14.9558C34.7007 14.3353 33.4987 15.7775 33.5203 17.5575C33.5246 17.9018 33.5838 18.2431 33.799 18.4867C34.1702 18.9062 35.2324 19.0067 35.7689 18.6539C35.8727 18.5856 35.9788 18.4613 36.0476 18.3752C36.0993 18.3103 36.1814 18.1404 36.1963 18.1893C36.168 18.3779 36.1259 18.5527 36.122 18.7654H36.8468C36.9865 16.7617 37.4183 15.0504 37.7388 13.2275L36.9395 13.2276ZM35.1556 18.338C34.6177 18.3495 34.3502 18.0166 34.3379 17.4646C34.3164 16.4978 34.7405 15.4238 35.6016 15.3275C36.0025 15.2827 36.2928 15.3759 36.5865 15.4762C36.3168 16.5621 36.4141 18.311 35.1556 18.338ZM28.2612 14.9001C28.2219 15.1209 28.1615 15.3207 28.1126 15.5319C28.5841 15.4136 30.0524 15.0511 30.1939 15.6805C30.2409 15.8896 30.1598 16.1118 30.101 16.2752C28.7733 16.1495 27.6911 16.3701 27.4064 17.3159C27.2158 17.9494 27.4278 18.5729 27.8339 18.7469C28.6159 19.082 29.5672 18.6981 29.8966 18.1708C29.8624 18.3533 29.83 18.5379 29.8409 18.7654H30.5284C30.5358 18.1069 30.6316 17.5739 30.7328 16.9814C30.8191 16.4768 30.9816 15.9772 30.9559 15.5319C30.8967 14.512 29.207 14.8728 28.2612 14.9001ZM29.562 18.0221C29.1503 18.4252 27.9943 18.5397 28.1126 17.5761C28.2107 16.7757 29.0822 16.6056 30.0265 16.7212C29.9564 17.159 29.8758 17.7149 29.562 18.0221Z" fill="white"/>
</g>
</g>
</g>
</g>
<defs>
<linearGradient id="paint0_linear_1_588" x1="22.47" y1="0.469727" x2="22.47" y2="32.4697" gradientUnits="userSpaceOnUse">
<stop stop-color="white"/>
<stop offset="1" stop-color="#E0E0E0"/>
</linearGradient>
<clipPath id="clip0_1_588">
<rect width="38" height="16" fill="white" transform="translate(3.46997 8.46973)"/>
</clipPath>
<clipPath id="clip1_1_588">
<rect width="38" height="16" fill="white" transform="translate(3.46997 8.46973)"/>
</clipPath>
<clipPath id="clip2_1_588">
<rect width="38" height="16" fill="white" transform="translate(3.46997 8.46973)"/>
</clipPath>
</defs>
</svg>
