<svg width="44" height="33" viewBox="0 0 44 33" fill="none" xmlns="http://www.w3.org/2000/svg">
<rect x="0.969971" y="0.469727" width="43" height="32" rx="2" fill="url(#paint0_linear_1_598)"/>
<g clip-path="url(#clip0_1_598)">
<g clip-path="url(#clip1_1_598)">
<g clip-path="url(#clip2_1_598)">
<path fill-rule="evenodd" clip-rule="evenodd" d="M5.63038 11.6003H3.96997V17.3793H5.60883C6.49314 17.3793 7.11833 17.1851 7.67906 16.7108C8.32602 16.1718 8.73563 15.3522 8.73563 14.4897C8.73563 12.7864 7.46326 11.6003 5.63038 11.6003ZM6.94586 15.956C6.57937 16.2581 6.12623 16.409 5.39324 16.409H5.09142V12.5921H5.39324C6.12623 12.5921 6.5576 12.7215 6.94586 13.0449C7.33391 13.3898 7.57127 13.9292 7.57127 14.4897C7.57106 15.0504 7.33391 15.6111 6.94586 15.956ZM9.25324 17.3795H10.3745V11.6003H9.25324V17.3795ZM13.1346 13.8214C12.4445 13.5627 12.2505 13.4118 12.2505 13.0882C12.2505 12.7217 12.617 12.463 13.0915 12.463C13.4364 12.463 13.7169 12.5923 13.9972 12.9157L14.601 12.1612C14.1049 11.7298 13.5228 11.5142 12.8974 11.5142C11.8624 11.5142 11.0861 12.2259 11.0861 13.1746C11.0861 13.9725 11.4526 14.3607 12.5094 14.7488C12.9623 14.8997 13.1779 15.0075 13.2857 15.0722C13.5228 15.2233 13.6306 15.4386 13.6306 15.676C13.6306 16.1505 13.2641 16.4954 12.7465 16.4954C12.2289 16.4954 11.7762 16.2151 11.5173 15.7191L10.8059 16.4307C11.3235 17.1853 11.9487 17.5304 12.8112 17.5304C13.9756 17.5304 14.7952 16.7541 14.7952 15.6329C14.795 14.7055 14.407 14.2956 13.1346 13.8214ZM15.1402 14.4897C15.1402 16.1932 16.4772 17.5086 18.2021 17.5086C18.6766 17.5086 19.1077 17.4222 19.6038 17.1851V15.848C19.1509 16.3008 18.7628 16.495 18.2452 16.495C17.124 16.495 16.3045 15.654 16.3045 14.4895C16.3045 13.3898 17.1455 12.5057 18.2021 12.5057C18.7413 12.5057 19.1509 12.6997 19.6038 13.1526V11.8372C19.1293 11.5783 18.7197 11.4707 18.2236 11.4707C16.5201 11.4709 15.1402 12.8295 15.1402 14.4897Z" fill="#1A1A1A"/>
<path fill-rule="evenodd" clip-rule="evenodd" d="M23.0539 11.4697C21.3502 11.4697 19.97 12.8068 19.97 14.4454C19.97 16.2139 21.2855 17.5076 23.0539 17.5076C24.7786 17.5076 26.1374 16.1921 26.1374 14.4886C26.1376 12.8068 24.8003 11.4697 23.0539 11.4697Z" fill="url(#paint1_radial_1_598)"/>
<path fill-rule="evenodd" clip-rule="evenodd" d="M28.7465 15.4811L27.2155 11.5996H25.9647L28.4232 17.5295H29.027L31.5284 11.5996H30.2992L28.7465 15.4811ZM32.046 17.3788H35.2375V16.4082H33.1672V14.8557H35.151V13.8638H33.1672V12.5915H35.2375V11.5996H32.046V17.3788ZM39.7011 13.3031C39.7011 12.225 38.9677 11.5996 37.6526 11.5996H35.992V17.3786H37.1132V15.0712H37.2641L38.8168 17.3786H40.1969L38.3856 14.9417C39.2264 14.7694 39.7011 14.1872 39.7011 13.3031ZM37.4366 14.2736H37.1132V12.5055H37.4582C38.1698 12.5055 38.5361 12.8073 38.5361 13.368C38.5363 13.95 38.17 14.2736 37.4366 14.2736ZM4.22664 19.0755V19.5933H4.86606V19.8029H4.22664V20.7049H3.99683V18.8658H4.88699V19.0755H4.22664ZM5.93665 18.8658H6.16667V20.7049H5.93665V18.8658ZM7.27703 18.7775L8.65633 20.2248V18.8658H8.88615V20.7807L7.50538 19.3342V20.7049H7.27703V18.7775ZM11.0125 20.0346H10.3573L10.6847 19.2899L11.0125 20.0346ZM11.1067 20.2443L11.3164 20.7049H11.5638L10.6849 18.7878L9.80646 20.7049H10.0528L10.2632 20.2443H11.1067ZM12.4837 18.7775L13.8644 20.2248V18.8658H14.0945V20.7807L12.712 19.3342V20.7049H12.4837V18.7775ZM16.5475 19.2174C16.4167 19.0998 16.2354 19.0368 16.0619 19.0368C15.6507 19.0368 15.3359 19.3807 15.3359 19.7882C15.3359 20.1907 15.6475 20.5344 16.0577 20.5344C16.2386 20.5344 16.411 20.4665 16.5473 20.3441V20.6154C16.4001 20.6988 16.2339 20.7431 16.0647 20.7441C15.5391 20.7441 15.1054 20.3272 15.1054 19.7951C15.1054 19.2509 15.542 18.8261 16.0847 18.8261C16.2461 18.8261 16.4092 18.8658 16.5471 18.951L16.5475 19.2174ZM17.603 18.8658H17.8316V20.7049H17.603V18.8658ZM19.9742 20.0346H19.3193L19.6483 19.2899L19.9742 20.0346ZM20.0686 20.2443L20.279 20.7049H20.5253L19.6483 18.7878L18.7695 20.7049H19.0152L19.2249 20.2443H20.0686ZM21.6966 20.4963H22.2556V20.7049H21.468V18.8658H21.6966V20.4963ZM25.5053 19.2149C25.4387 19.0996 25.3504 19.0412 25.2102 19.0412C25.0634 19.0412 24.9019 19.1411 24.9019 19.3026C24.9019 19.446 25.0454 19.5222 25.1593 19.5659L25.2901 19.6176C25.5522 19.7196 25.7472 19.864 25.7472 20.171C25.7472 20.5057 25.4881 20.7441 25.1593 20.7441C24.8612 20.7441 24.6295 20.5249 24.5915 20.2296L24.8227 20.1813C24.8198 20.3832 24.981 20.5298 25.1775 20.5298C25.3757 20.5298 25.5168 20.3644 25.5168 20.171C25.5168 19.9739 25.3586 19.888 25.2003 19.8217L25.0739 19.7687C24.8633 19.6783 24.6733 19.559 24.6733 19.3026C24.6733 19.0046 24.9366 18.8261 25.2154 18.8261C25.4195 18.8261 25.5882 18.9267 25.6876 19.1044L25.5053 19.2149ZM26.7856 18.8658H27.7743V19.0755H27.0156V19.591H27.7536V19.8006H27.0156V20.4963H27.7743V20.7049H26.7856V18.8658ZM29.0764 19.0707H29.1352C29.3642 19.0707 29.6367 19.1122 29.6367 19.4006C29.6367 19.693 29.3816 19.7365 29.1478 19.7365H29.0762L29.0764 19.0707ZM29.41 19.9054C29.6758 19.8732 29.8515 19.6543 29.8515 19.3903C29.8515 19.2149 29.7631 19.0412 29.6091 18.9508C29.4632 18.8681 29.2874 18.8658 29.1248 18.8658H28.8468V20.7049H29.0766V19.9278H29.171L29.7127 20.7049H29.9902L29.41 19.9054ZM31.5661 20.2271L32.1126 18.8658H32.3644L31.5661 20.8035L30.7663 18.8658H31.0177L31.5661 20.2271ZM33.301 18.8658H33.5306V20.7049H33.301V18.8658ZM36.0039 19.2174C35.8714 19.0998 35.69 19.0368 35.5158 19.0368C35.105 19.0368 34.7902 19.3807 34.7902 19.7882C34.7902 20.1907 35.1016 20.5344 35.5116 20.5344C35.6927 20.5344 35.8668 20.4665 36.0039 20.3441V20.6154C35.8562 20.6986 35.6896 20.7429 35.52 20.7441C34.9959 20.7441 34.5602 20.3272 34.5602 19.7951C34.5602 19.2509 34.9989 18.8261 35.5393 18.8261C35.7006 18.8261 35.8639 18.8658 36.0041 18.951L36.0039 19.2174ZM37.0634 18.8658H38.052V19.0755H37.2937V19.591H38.0302V19.8006H37.2937V20.4963H38.052V20.7049H37.0634V18.8658ZM39.9397 19.2149C39.8727 19.0996 39.7848 19.0412 39.6458 19.0412C39.4999 19.0412 39.3383 19.1411 39.3383 19.3026C39.3383 19.446 39.4807 19.5222 39.5943 19.5659L39.7272 19.6176C39.9872 19.7196 40.1822 19.864 40.1822 20.171C40.1822 20.5057 39.9235 20.7441 39.5943 20.7441C39.2975 20.7441 39.0641 20.5249 39.0269 20.2296L39.2575 20.1813C39.2546 20.3832 39.417 20.5298 39.614 20.5298C39.8118 20.5298 39.9537 20.3644 39.9537 20.171C39.9537 19.9739 39.7938 19.888 39.636 19.8217L39.5093 19.7687C39.2988 19.6783 39.1087 19.559 39.1087 19.3026C39.1087 19.0046 39.3725 18.8261 39.6508 18.8261C39.8549 18.8261 40.024 18.9267 40.1247 19.1044L39.9397 19.2149ZM40.3599 12.1122C40.3599 12.1566 40.3296 12.18 40.2681 12.18H40.2471V12.0475H40.2695C40.3306 12.0477 40.3599 12.0686 40.3599 12.1122ZM40.5404 12.4623L40.3727 12.2518C40.4443 12.2334 40.4855 12.181 40.4855 12.109C40.4855 12.0094 40.4156 11.9531 40.2913 11.9531H40.1291V12.4623H40.2492V12.2652L40.392 12.4623H40.5404ZM40.7545 12.2068C40.7545 11.9636 40.5567 11.7631 40.3166 11.7631C40.2582 11.7627 40.2003 11.7739 40.1462 11.796C40.0921 11.8182 40.043 11.8508 40.0016 11.8921C39.9603 11.9334 39.9275 11.9824 39.9052 12.0364C39.8829 12.0905 39.8716 12.1484 39.8718 12.2068C39.8718 12.454 40.0705 12.6511 40.3166 12.6511C40.5567 12.6509 40.7545 12.4506 40.7545 12.2068ZM40.6649 12.208C40.6649 12.4077 40.5079 12.5714 40.3145 12.5714C40.1199 12.5714 39.9598 12.4085 39.9598 12.208C39.9598 12.0052 40.1184 11.8441 40.3145 11.8441C40.5079 11.8441 40.6649 12.0077 40.6649 12.208Z" fill="#1A1A1A"/>
</g>
</g>
</g>
<defs>
<linearGradient id="paint0_linear_1_598" x1="22.47" y1="0.469727" x2="22.47" y2="32.4697" gradientUnits="userSpaceOnUse">
<stop stop-color="white"/>
<stop offset="1" stop-color="#E0E0E0"/>
</linearGradient>
<radialGradient id="paint1_radial_1_598" cx="0" cy="0" r="1" gradientUnits="userSpaceOnUse" gradientTransform="translate(23.0537 14.4887) rotate(90) scale(3.48107 3.55573)">
<stop stop-color="#FDF8F5"/>
<stop offset="1" stop-color="#DB8338"/>
</radialGradient>
<clipPath id="clip0_1_598">
<rect width="37" height="10" fill="white" transform="translate(3.96997 11.4697)"/>
</clipPath>
<clipPath id="clip1_1_598">
<rect width="37" height="10" fill="white" transform="translate(3.96997 11.4697)"/>
</clipPath>
<clipPath id="clip2_1_598">
<rect width="37" height="10" fill="white" transform="translate(3.96997 11.4697)"/>
</clipPath>
</defs>
</svg>
