<svg width="44" height="33" viewBox="0 0 44 33" fill="none" xmlns="http://www.w3.org/2000/svg">
<rect x="0.969971" y="0.469727" width="43" height="32" rx="2" fill="url(#paint0_linear_1_605)"/>
<g clip-path="url(#clip0_1_605)">
<g clip-path="url(#clip1_1_605)">
<g clip-path="url(#clip2_1_605)">
<path d="M28.6249 22.2997C28.2003 22.3007 27.7798 22.2177 27.3875 22.0553C26.9953 21.8929 26.6391 21.6543 26.3395 21.3535L23.0398 18.0537C22.9231 17.9421 22.7679 17.8799 22.6064 17.8799C22.4449 17.8799 22.2897 17.9421 22.173 18.0537L18.8614 21.3639C18.5619 21.6648 18.2057 21.9033 17.8134 22.0657C17.4212 22.2281 17.0006 22.3112 16.5761 22.3101H15.9281L20.1086 26.4906C20.7356 27.1166 21.5855 27.4683 22.4716 27.4683C23.3577 27.4683 24.2075 27.1166 24.8346 26.4906L29.0255 22.2997H28.6249Z" fill="#32BCAD"/>
<path d="M16.5763 10.6286C17.0008 10.6274 17.4214 10.7104 17.8137 10.8728C18.206 11.0352 18.5621 11.2738 18.8616 11.5748L22.1732 14.8843C22.2883 14.999 22.4441 15.0634 22.6066 15.0634C22.7691 15.0634 22.9249 14.999 23.04 14.8843L26.3397 11.5845C26.6392 11.2835 26.9953 11.0449 27.3876 10.8825C27.7799 10.7201 28.2005 10.6371 28.625 10.6383H29.0222L24.8313 6.44745C24.2042 5.82137 23.3544 5.46973 22.4683 5.46973C21.5822 5.46973 20.7323 5.82137 20.1053 6.44745L15.9248 10.6279L16.5763 10.6286Z" fill="#32BCAD"/>
<path d="M32.4884 14.1069L29.9558 11.5742C29.8988 11.5979 29.8378 11.6105 29.776 11.6111H28.625C28.0244 11.6117 27.4484 11.8496 27.0225 12.273L23.7234 15.5728C23.4262 15.8696 23.0234 16.0363 22.6034 16.0363C22.1834 16.0363 21.7806 15.8696 21.4834 15.5728L18.1718 12.2612C17.7468 11.8384 17.1722 11.6004 16.5728 11.5986H15.1619C15.1036 11.5976 15.046 11.5861 14.9918 11.5645L12.448 14.1069C11.8218 14.7339 11.47 15.584 11.47 16.4702C11.47 17.3565 11.8218 18.2065 12.448 18.8336L14.9905 21.376C15.0445 21.3541 15.1021 21.3423 15.1605 21.3411H16.5762C17.1756 21.3396 17.7502 21.1018 18.1753 20.6792L21.4869 17.3676C22.0854 16.7698 23.1284 16.7691 23.7269 17.3676L27.026 20.6674C27.4516 21.0913 28.0278 21.3295 28.6285 21.33H29.7795C29.8414 21.3305 29.9027 21.3428 29.96 21.3662L32.4919 18.8343C33.1182 18.2072 33.47 17.3572 33.47 16.4709C33.47 15.5847 33.1182 14.7346 32.4919 14.1076L32.4884 14.1069Z" fill="#32BCAD"/>
</g>
</g>
</g>
<defs>
<linearGradient id="paint0_linear_1_605" x1="22.47" y1="0.469727" x2="22.47" y2="32.4697" gradientUnits="userSpaceOnUse">
<stop stop-color="white"/>
<stop offset="1" stop-color="#E0E0E0"/>
</linearGradient>
<clipPath id="clip0_1_605">
<rect width="22" height="22" fill="white" transform="translate(11.47 5.46973)"/>
</clipPath>
<clipPath id="clip1_1_605">
<rect width="22" height="22" fill="white" transform="translate(11.47 5.46973)"/>
</clipPath>
<clipPath id="clip2_1_605">
<rect width="22" height="22" fill="white" transform="translate(11.47 5.46973)"/>
</clipPath>
</defs>
</svg>
