<svg width="44" height="33" viewBox="0 0 44 33" fill="none" xmlns="http://www.w3.org/2000/svg">
<rect x="0.969971" y="0.469727" width="43" height="32" rx="2" fill="url(#paint0_linear_1_575)"/>
<g clip-path="url(#clip0_1_575)">
<g clip-path="url(#clip1_1_575)">
<g clip-path="url(#clip2_1_575)">
<path d="M22.8034 27.136C28.6944 27.136 33.47 22.3604 33.47 16.4694C33.47 10.5784 28.6944 5.80273 22.8034 5.80273C16.9124 5.80273 12.1367 10.5784 12.1367 16.4694C12.1367 22.3604 16.9124 27.136 22.8034 27.136Z" fill="#231F20"/>
<path fill-rule="evenodd" clip-rule="evenodd" d="M19.3818 18.0972C19.0276 18.4412 18.5476 18.6511 18.017 18.6436C17.667 18.6379 17.3255 18.5354 17.0303 18.3475L16.3212 19.4784C16.8067 19.7861 17.3811 19.968 17.9985 19.9776C18.4266 19.9848 18.8519 19.9069 19.2496 19.7483C19.6473 19.5898 20.0095 19.3537 20.3151 19.0538L19.3818 18.0972ZM16.1483 16.9335C16.106 16.5275 16.1949 16.1188 16.4019 15.767C16.6089 15.4153 16.923 15.139 17.2984 14.9788C17.6737 14.8186 18.0905 14.7828 18.4877 14.8766C18.8849 14.9704 19.2416 15.189 19.5055 15.5003L16.1483 16.9335ZM18.097 13.4873C17.6708 13.4806 17.2475 13.558 16.8512 13.715C16.455 13.872 16.0935 14.1056 15.7876 14.4025C15.4817 14.6993 15.2374 15.0535 15.0685 15.4448C14.8995 15.8362 14.8094 16.257 14.8033 16.6832C14.7924 17.354 14.9872 17.9824 15.3277 18.5041L21.2053 15.9926C21.04 15.2884 20.6442 14.6597 20.0809 14.2061C19.5175 13.7525 18.8188 13.5 18.0956 13.4886L18.097 13.4873ZM23.0495 12.0254V18.2914L24.1367 18.7413L23.6225 19.9776L22.5476 19.5311C22.3316 19.4367 22.1476 19.2819 22.0177 19.0853C21.898 18.9006 21.8098 18.6483 21.8098 18.3078V12.0254H23.0495Z" fill="#FEFEFE"/>
<mask id="mask0_1_575" style="mask-type:alpha" maskUnits="userSpaceOnUse" x="26" y="13" width="5" height="4">
<path d="M26.5455 13.4863H30.7554V16.3506H26.5455V13.4863Z" fill="white"/>
</mask>
<g mask="url(#mask0_1_575)">
<path fill-rule="evenodd" clip-rule="evenodd" d="M26.9687 14.9201C27.2251 14.8344 27.4968 14.8042 27.7658 14.8314C28.0348 14.8585 28.295 14.9425 28.5291 15.0777C28.7632 15.2129 28.9659 15.3963 29.1239 15.6158C29.2818 15.8352 29.3914 16.0856 29.4453 16.3506L30.7547 16.0839C30.663 15.6337 30.4767 15.208 30.2083 14.8351C29.9398 14.4622 29.5953 14.1505 29.1974 13.9207C28.7995 13.6908 28.3574 13.5481 27.9002 13.5018C27.4431 13.4556 26.9813 13.5069 26.5455 13.6524L26.9687 14.9201Z" fill="#00A4DF"/>
</g>
<path fill-rule="evenodd" clip-rule="evenodd" d="M25.4241 19.1633L26.3089 18.1629C26.106 17.9838 25.9437 17.7635 25.8326 17.5168C25.7216 17.27 25.6643 17.0024 25.6648 16.7318C25.6648 16.1629 25.9137 15.6522 26.3082 15.3028L25.4234 14.3018C24.752 14.8966 24.3287 15.765 24.3287 16.7318C24.3287 17.7 24.7527 18.5684 25.4241 19.1633Z" fill="#FFF100"/>
<path fill-rule="evenodd" clip-rule="evenodd" d="M29.4454 17.1152C29.391 17.3798 29.2812 17.6299 29.123 17.8489C28.9649 18.068 28.7622 18.251 28.5281 18.3859C28.2941 18.5209 28.0341 18.6046 27.7653 18.6317C27.4965 18.6587 27.225 18.6285 26.9688 18.5429L26.5449 19.8106C26.9804 19.9561 27.4419 20.0076 27.8988 19.9617C28.3557 19.9157 28.7977 19.7734 29.1956 19.544C29.5934 19.3147 29.9381 19.0036 30.2069 18.6312C30.4757 18.2589 30.6624 17.8337 30.7548 17.3839L29.4454 17.1152Z" fill="#EE4123"/>
</g>
</g>
</g>
<defs>
<linearGradient id="paint0_linear_1_575" x1="22.47" y1="0.469727" x2="22.47" y2="32.4697" gradientUnits="userSpaceOnUse">
<stop stop-color="white"/>
<stop offset="1" stop-color="#E0E0E0"/>
</linearGradient>
<clipPath id="clip0_1_575">
<rect width="22" height="22" fill="white" transform="translate(11.47 5.46973)"/>
</clipPath>
<clipPath id="clip1_1_575">
<rect width="22" height="22" fill="white" transform="translate(11.47 5.46973)"/>
</clipPath>
<clipPath id="clip2_1_575">
<rect width="22" height="22" fill="white" transform="translate(11.47 5.46973)"/>
</clipPath>
</defs>
</svg>
