<svg width="44" height="33" viewBox="0 0 44 33" fill="none" xmlns="http://www.w3.org/2000/svg">
<rect x="0.969971" y="0.469727" width="43" height="32" rx="2" fill="url(#paint0_linear_1_569)"/>
<g clip-path="url(#clip0_1_569)">
<g clip-path="url(#clip1_1_569)">
<g clip-path="url(#clip2_1_569)">
<path d="M10.97 7.13672H34.303C35.223 7.13672 35.97 7.88272 35.97 8.80372V24.6367C35.97 25.5567 35.223 26.3037 34.303 26.3037H10.97C10.05 26.3037 9.30298 25.5567 9.30298 24.6377V8.80372C9.30298 7.88372 10.05 7.13672 10.97 7.13672Z" fill="#26A6D1"/>
<path d="M13.603 13.8027L10.97 19.6297H14.122L14.513 18.7007H15.407L15.797 19.6307H19.267V18.9207L19.577 19.6307H21.372L21.681 18.9057V19.6297H28.897L29.775 18.7247L30.597 19.6297L34.303 19.6377L31.662 16.7327L34.303 13.8027H30.654L29.8 14.6907L29.004 13.8027H21.154L20.479 15.3067L19.789 13.8027H16.643V14.4877L16.293 13.8027H13.603ZM14.213 14.6297H15.75L17.497 18.5817V14.6297H19.18L20.53 17.4637L21.773 14.6297H23.448V18.8117H22.428L22.42 15.5347L20.934 18.8117H20.022L18.529 15.5347V18.8117H16.432L16.034 17.8737H13.887L13.49 18.8107H12.367L14.213 14.6307V14.6297ZM24.38 14.6297H28.524L29.792 15.9997L31.1 14.6297H32.368L30.442 16.7317L32.368 18.8087H31.043L29.775 17.4237L28.46 18.8087H24.38V14.6297ZM14.96 15.3377L14.253 17.0077H15.668L14.961 15.3377H14.96ZM25.403 15.4957V16.2587H27.664V17.1097H25.404V17.9437H27.939L29.117 16.7157L27.989 15.4957H25.403Z" fill="white"/>
</g>
</g>
</g>
<defs>
<linearGradient id="paint0_linear_1_569" x1="22.47" y1="0.469727" x2="22.47" y2="32.4697" gradientUnits="userSpaceOnUse">
<stop stop-color="white"/>
<stop offset="1" stop-color="#E0E0E0"/>
</linearGradient>
<clipPath id="clip0_1_569">
<rect width="27" height="20" fill="white" transform="translate(8.96997 6.46973)"/>
</clipPath>
<clipPath id="clip1_1_569">
<rect width="27" height="20" fill="white" transform="translate(8.96997 6.46973)"/>
</clipPath>
<clipPath id="clip2_1_569">
<rect width="27" height="20" fill="white" transform="translate(8.96997 6.46973)"/>
</clipPath>
</defs>
</svg>
