<svg width="44" height="33" viewBox="0 0 44 33" fill="none" xmlns="http://www.w3.org/2000/svg">
<rect x="0.969971" y="0.469727" width="43" height="32" rx="2" fill="url(#paint0_linear_1_559)"/>
<g clip-path="url(#clip0_1_559)">
<g clip-path="url(#clip1_1_559)">
<g clip-path="url(#clip2_1_559)">
<mask id="mask0_1_559" style="mask-type:luminance" maskUnits="userSpaceOnUse" x="2" y="8" width="41" height="17">
<path d="M42.47 8.46973H2.46997V24.4697H42.47V8.46973Z" fill="white"/>
</mask>
<g mask="url(#mask0_1_559)">
<path d="M20.2316 22.4159H17.4847L19.2015 11.8653H21.9487L20.2316 22.4159ZM15.1739 11.8653L12.5552 19.122L12.2452 17.5594L11.3212 12.8152C11.3212 12.8152 11.2095 11.8653 10.0182 11.8653H5.68892L5.63812 12.0439C5.63812 12.0439 6.96203 12.3194 8.51143 13.2499L10.8979 22.4161H13.76L18.1302 11.8653H15.1739ZM36.7795 22.4159H39.3017L37.1026 11.865H34.8945C33.8748 11.865 33.6265 12.6513 33.6265 12.6513L29.5297 22.4159H32.3932L32.9658 20.8487H36.4577L36.7795 22.4159ZM33.7569 18.6837L35.2001 14.7355L36.0121 18.6837H33.7569ZM29.7445 14.4025L30.1365 12.1368C30.1365 12.1368 28.9269 11.6768 27.6659 11.6768C26.3028 11.6768 23.0657 12.2725 23.0657 15.1695C23.0657 17.8953 26.865 17.9291 26.865 19.3608C26.865 20.7925 23.4571 20.536 22.3325 19.6331L21.9241 22.0021C21.9241 22.0021 23.1506 22.5979 25.0246 22.5979C26.8991 22.5979 29.727 21.6273 29.727 18.9857C29.727 16.2426 25.8936 15.9871 25.8936 14.7945C25.8938 13.6015 28.569 13.7548 29.7445 14.4025Z" fill="#2566AF"/>
<path d="M12.2455 17.5599L11.3213 12.8152C11.3213 12.8152 11.2095 11.8652 10.0182 11.8652H5.68892L5.63812 12.0439C5.63812 12.0439 7.71895 12.4751 9.71484 14.0908C11.6232 15.6352 12.2455 17.5599 12.2455 17.5599Z" fill="#E6A540"/>
</g>
</g>
</g>
</g>
<defs>
<linearGradient id="paint0_linear_1_559" x1="22.47" y1="0.469727" x2="22.47" y2="32.4697" gradientUnits="userSpaceOnUse">
<stop stop-color="white"/>
<stop offset="1" stop-color="#E0E0E0"/>
</linearGradient>
<clipPath id="clip0_1_559">
<rect width="40" height="16" fill="white" transform="translate(2.46997 8.46973)"/>
</clipPath>
<clipPath id="clip1_1_559">
<rect width="40" height="16" fill="white" transform="translate(2.46997 8.46973)"/>
</clipPath>
<clipPath id="clip2_1_559">
<rect width="40" height="16" fill="white" transform="translate(2.46997 8.46973)"/>
</clipPath>
</defs>
</svg>
