<svg width="32" height="32" viewBox="0 0 32 32" fill="none" xmlns="http://www.w3.org/2000/svg">
<rect width="32" height="32" fill="white"/>
<path d="M24.2541 7.56607C23.6833 7.00103 23.004 6.55619 22.2567 6.25813C21.5094 5.96007 20.7093 5.81489 19.9044 5.83125C18.4399 5.83959 17.0349 6.40913 15.9815 7.42151C14.8513 6.37672 13.3583 5.80814 11.8159 5.8351C10.2735 5.86205 8.80149 6.48245 7.70888 7.56607C5.16626 9.98759 5.48409 14.162 8.50799 17.2883L14.7193 23.2788C15.0509 23.6205 15.5043 23.8185 15.9815 23.83C16.4434 23.8307 16.8883 23.6562 17.2256 23.3421L17.4072 23.1704L17.9611 22.6554C18.5059 22.1404 19.2506 21.4175 20.2222 20.4778L22.4379 18.3183L23.4277 17.3515C26.497 14.1439 26.8784 10.0328 24.2541 7.56607ZM22.1201 16.0595L21.8931 16.2763L21.1666 16.9901L18.9509 19.1496C18.0428 20.0532 17.28 20.767 16.7352 21.282L15.9815 22.0229L9.7793 15.9872C7.45462 13.5837 7.1822 10.5659 8.98019 8.83105C9.36146 8.45076 9.81438 8.14904 10.313 7.94318C10.8117 7.73731 11.3462 7.63135 11.8861 7.63135C12.4259 7.63135 12.9605 7.73731 13.4591 7.94318C13.9577 8.14904 14.4106 8.45076 14.7919 8.83105L14.8736 8.90333C14.9796 8.98345 15.077 9.07429 15.1642 9.1744L15.9815 10.0237L16.7988 9.1744L17.053 8.93044L17.1529 8.84912C17.5347 8.46474 17.9893 8.15957 18.4904 7.95129C18.9916 7.74302 19.5293 7.63577 20.0724 7.63577C20.6155 7.63577 21.1532 7.74302 21.6543 7.95129C22.1555 8.15957 22.6101 8.46474 22.9919 8.84912C24.7808 10.5659 24.5083 13.5928 22.1201 16.0595Z" fill="black"/>
</svg>
