<svg width="32" height="32" viewBox="0 0 32 32" fill="none" xmlns="http://www.w3.org/2000/svg">
<rect width="32" height="32" fill="white"/>
<path fill-rule="evenodd" clip-rule="evenodd" d="M11 8.83V6.83C11 6.29957 11.2107 5.79086 11.5858 5.41579C11.9609 5.04071 12.4696 4.83 13 4.83H19C19.5304 4.83 20.0391 5.04071 20.4142 5.41579C20.7893 5.79086 21 6.29957 21 6.83V8.83H23C24.1046 8.83 25 9.72543 25 10.83V21.83C25 23.4869 23.6569 24.83 22 24.83H10C8.34315 24.83 7 23.4869 7 21.83V10.83C7 9.72543 7.89543 8.83 9 8.83H11ZM9 10.83V21.83C9 22.3823 9.44772 22.83 10 22.83H22C22.5523 22.83 23 22.3823 23 21.83V10.83H9ZM13 8.83H19V6.83H13V8.83Z" fill="black"/>
</svg>
