<svg width="32" height="32" viewBox="0 0 32 32" fill="none" xmlns="http://www.w3.org/2000/svg">
<path fill-rule="evenodd" clip-rule="evenodd" d="M15.3333 10C12.3878 10 10 12.3878 10 15.3333C10 18.2789 12.3878 20.6667 15.3333 20.6667C16.5658 20.6667 17.7007 20.2486 18.6037 19.5466L20.1953 21.1381C20.4556 21.3984 20.8777 21.3984 21.1381 21.1381C21.3984 20.8777 21.3984 20.4556 21.1381 20.1953L19.5466 18.6037C20.2486 17.7007 20.6667 16.5658 20.6667 15.3333C20.6667 12.3878 18.2789 10 15.3333 10ZM11.3333 15.3333C11.3333 13.1242 13.1242 11.3333 15.3333 11.3333C17.5425 11.3333 19.3333 13.1242 19.3333 15.3333C19.3333 17.5425 17.5425 19.3333 15.3333 19.3333C13.1242 19.3333 11.3333 17.5425 11.3333 15.3333Z" fill="black"/>
</svg>
