<svg width="8" height="17" viewBox="0 0 8 17" fill="none" xmlns="http://www.w3.org/2000/svg">
<path fill-rule="evenodd" clip-rule="evenodd" d="M0 8.5027C0.00067 8.7533 0.0934803 8.9822 0.24635 9.1573L6.2346 16.1436C6.418 16.3615 6.6928 16.5 7 16.5C7.5523 16.5 8 16.0523 8 15.5C8 15.2515 7.9093 15.0241 7.7593 14.8492L2.3171 8.5L7.7537 2.15725C7.9071 1.9815 8 1.7516 8 1.5C8 0.94771 7.5523 0.5 7 0.5C6.6963 0.5 6.4241 0.63542 6.2407 0.84917L0.24074 7.8492L0.23466 7.8563C0.0894001 8.0289 0.00142003 8.2512 2.00272e-05 8.4941L0 8.5V8.5027Z" fill="black"/>
</svg>
