<svg width="8" height="17" viewBox="0 0 8 17" fill="none" xmlns="http://www.w3.org/2000/svg">
<path fill-rule="evenodd" clip-rule="evenodd" d="M8 8.5027C7.9993 8.7533 7.9065 8.9822 7.7537 9.1573L1.76541 16.1436C1.58197 16.3615 1.30716 16.5 1 16.5C0.44772 16.5 0 16.0523 0 15.5C0 15.2515 0.0906703 15.0241 0.24075 14.8492L5.6829 8.5L0.24631 2.15725C0.0929202 1.9815 0 1.7516 0 1.5C0 0.94771 0.44772 0.5 1 0.5C1.30374 0.5 1.57586 0.63542 1.75926 0.84917L7.7593 7.8492L7.7653 7.8563C7.9106 8.0289 7.9986 8.2512 8 8.4941V8.5V8.5027Z" fill="black"/>
</svg>
