<svg width="46" height="18" viewBox="0 0 46 18" fill="none" xmlns="http://www.w3.org/2000/svg">
<g clip-path="url(#clip0_1_694)">
<g clip-path="url(#clip1_1_694)">
<g clip-path="url(#clip2_1_694)">
<path d="M4.416 2.01492C2.53137 2.43432 1.24907 4.07715 1.16192 6.19192C1.11877 7.20269 1.31897 7.95676 1.82205 8.72268C2.08783 9.11072 2.93177 9.93935 3.50044 10.3647C4.49107 11.1035 4.76203 11.4602 4.70766 11.9542C4.6697 12.2625 4.50747 12.4803 4.18819 12.6294C3.41414 13.0064 2.30442 12.5388 1.40008 11.4543L1.19988 11.2153V15.6321L1.56231 15.7439C2.29838 15.9727 2.53742 15.9989 3.8249 15.9989C4.97862 15.9989 5.0977 15.9888 5.47653 15.8769C6.61904 15.5262 7.55014 14.7611 8.06961 13.7562C8.16712 13.5698 8.29138 13.2987 8.34575 13.1445L8.44843 12.8632V14.3883L8.45361 15.9193H12.1349L12.146 12.6031L12.1624 9.28611L13.4611 12.5871L14.7659 15.8931L16.3468 15.9091L17.9277 15.9193V2.04627H14.2464L14.2352 5.05489L14.2197 8.05843L13.3533 5.05489L12.4869 2.04712H8.45361V6.12328C8.44843 10.1901 8.44843 10.2054 8.34575 9.92918C8.086 9.21748 7.56566 8.56848 6.74934 7.94151C6.4292 7.69665 5.98566 7.35097 5.75784 7.17558C5.22197 6.76042 4.98984 6.43169 4.98984 6.08092C4.98984 5.85725 5.01573 5.78861 5.184 5.61323C5.40577 5.36838 5.64997 5.27264 6.03916 5.27857C6.46716 5.28874 7.11091 5.6234 7.58724 6.08601L7.96692 6.45287V2.48261L7.62003 2.34451C6.88913 2.06237 6.47752 1.98273 5.5844 1.96154C5.00019 1.95053 4.64381 1.96663 4.416 2.01492ZM40.0254 2.04119C39.8097 2.09456 39.4196 2.23775 39.165 2.36569C38.3798 2.7478 37.617 3.5671 37.2701 4.39572C37.1941 4.58212 37.1294 4.74141 37.119 4.74649C37.1078 4.7575 37.0155 4.59229 36.9128 4.37454C36.2846 3.05112 35.0455 2.31739 33.0857 2.10473C32.6853 2.05729 31.277 2.04627 28.3267 2.05729L24.1372 2.07338L23.2113 4.00768L22.2854 5.93773L22.269 3.99158L22.2586 2.04627H18.4687V15.9193H22.2586V13.0064L22.2638 10.0995L23.4063 13.0064L24.554 15.9193H31.7318L31.749 14.0164C31.7543 12.9742 31.7543 11.7254 31.749 11.2424C31.743 10.7586 31.7595 10.4019 31.781 10.4443C31.8026 10.4867 32.2677 11.7364 32.8148 13.2191L33.8055 15.9134L36.0844 15.9405C37.3356 15.9575 38.8406 15.9829 39.43 16.0049C40.3835 16.0312 40.5397 16.0201 40.9728 15.9202C41.5787 15.7792 42.1458 15.5094 42.6341 15.13C43.1224 14.7506 43.52 14.2707 43.7989 13.7241C44.1242 13.0861 44.2433 12.5709 44.2753 11.7203C44.346 9.89698 43.7989 8.90823 41.9911 7.57464C40.7243 6.64435 40.4482 6.18683 40.8262 5.66068C41.2059 5.13538 42.0886 5.16673 42.8678 5.73524C43.1923 5.96908 43.8041 6.58589 43.8041 6.6757C43.8041 6.70282 43.8317 6.72399 43.8585 6.72399C43.8913 6.72399 43.9128 5.9801 43.9128 4.6033V2.48685L43.5988 2.34874C42.9817 2.07762 42.4562 1.98188 41.3957 1.9607C40.5777 1.9446 40.3559 1.95646 40.0254 2.04119ZM27.9315 11.3857L27.916 14.2451L26.6328 11.2052C25.9235 9.53604 25.3444 8.14823 25.3444 8.12197C25.3444 8.10079 25.9226 6.89937 26.6267 5.45903L27.916 2.83253L27.9315 5.68186C27.9375 7.25014 27.9375 9.81734 27.9315 11.3857ZM32.7664 5.27264C33.2911 5.56494 33.5672 6.14955 33.5025 6.85702C33.4266 7.78137 32.8312 8.41936 32.046 8.42444H31.7318V5.05998L32.1055 5.08709C32.3928 5.10827 32.5499 5.15487 32.7664 5.27264ZM38.1149 9.39794C38.3694 9.65805 38.8242 10.0622 39.1219 10.296C39.4196 10.5299 39.7769 10.8112 39.9226 10.9281C40.746 11.6084 40.5293 12.5709 39.5111 12.7514C38.8457 12.8683 37.6652 12.2303 37.1242 11.4602C37.038 11.3373 36.9456 11.2424 36.924 11.2424C36.8964 11.2424 36.8697 11.7626 36.8636 12.3947L36.8481 13.5436L36.0196 11.8583C35.5597 10.9281 35.1964 10.1681 35.2077 10.163C35.7703 9.88681 35.9274 9.77498 36.2846 9.43437C36.6099 9.12089 36.7454 8.9345 36.9292 8.57356L37.1622 8.11096L37.4055 8.5151C37.541 8.74386 37.8499 9.12682 38.1149 9.39794Z" fill="black"/>
</g>
</g>
</g>
<defs>
<clipPath id="clip0_1_694">
<rect width="46" height="15" fill="white" transform="translate(0 1.5)"/>
</clipPath>
<clipPath id="clip1_1_694">
<rect width="46" height="15" fill="white" transform="translate(0 1.5)"/>
</clipPath>
<clipPath id="clip2_1_694">
<rect width="44.0625" height="15" fill="white" transform="translate(0.96875 1.5)"/>
</clipPath>
</defs>
</svg>
