<svg width="19" height="18" viewBox="0 0 19 18" fill="none" xmlns="http://www.w3.org/2000/svg">
<path d="M10.298 1.533V1.476C10.298 1.21 10.3835 0.972497 10.5545 0.763497C10.7255 0.554497 10.944 0.449997 11.21 0.449997C11.476 0.449997 11.7135 0.535497 11.9225 0.706497C12.1315 0.877497 12.2455 1.1055 12.2645 1.3905C12.2835 1.6755 12.198 1.913 12.008 2.103C11.818 2.293 11.59 2.388 11.324 2.388L11.153 2.445L11.21 2.5305L11.153 2.844L11.039 3.756C11.077 3.794 11.096 3.832 11.096 3.87L10.982 4.44C10.944 4.516 10.906 4.573 10.868 4.611L10.811 4.839C10.735 5.143 10.6685 5.39 10.6115 5.58C10.5545 5.77 10.507 5.922 10.469 6.036V6.15C10.431 6.34 10.4025 6.492 10.3835 6.606C10.3645 6.72 10.298 6.91 10.184 7.176C10.108 7.328 10.108 7.575 10.184 7.917L10.241 7.974C10.241 8.088 10.2885 8.221 10.3835 8.373C10.4785 8.525 10.526 8.658 10.526 8.772C10.564 9.532 10.507 10.178 10.355 10.71L10.469 11.052C10.925 11.28 11.058 11.527 10.868 11.793L11.153 11.907C11.609 12.135 11.932 12.3345 12.122 12.5055C12.312 12.6765 12.502 12.857 12.692 13.047C12.844 13.085 12.958 13.142 13.034 13.218L13.205 13.275C14.003 13.807 14.801 14.453 15.599 15.213L15.827 15.384V15.441L15.77 15.555L15.941 15.669H15.998C16.112 15.745 16.188 15.783 16.226 15.783H16.283C16.321 15.783 16.359 15.764 16.397 15.726L16.511 15.669C16.587 15.593 16.663 15.536 16.739 15.498H16.967C17.005 15.498 17.005 15.517 16.967 15.555L16.739 15.669L16.454 16.011H16.853L17.252 16.068C17.366 16.03 17.461 15.992 17.537 15.954L17.822 15.783C17.936 15.745 18.05 15.783 18.164 15.897H18.221C18.259 15.935 18.24 15.992 18.164 16.068L17.48 16.695C17.29 16.847 17.119 16.942 16.967 16.98L16.226 17.493C16.188 17.531 16.15 17.531 16.112 17.493L15.941 17.265L15.827 17.037L15.6845 16.8375L15.5135 16.6095L15.371 16.4385L15.257 16.296L15.029 16.125C14.953 16.125 14.877 16.106 14.801 16.068L14.06 15.498C13.946 15.498 13.813 15.441 13.661 15.327C13.091 14.833 12.711 14.529 12.521 14.415L12.179 14.187L11.495 14.073C11.267 14.035 10.963 13.921 10.583 13.731L10.127 13.503C9.823 13.351 9.614 13.275 9.5 13.275L9.272 13.161C9.12 13.123 9.006 13.085 8.93 13.047L8.816 12.933C8.74 12.933 8.664 12.952 8.588 12.99L7.448 13.56L6.023 14.187C5.643 14.491 5.282 14.738 4.94 14.928L4.313 15.213L3.344 15.897C3.268 15.973 3.192 15.973 3.116 15.897L3.002 16.011C2.888 16.049 2.812 16.068 2.774 16.068L2.546 16.182V16.296H2.432L2.318 16.467C2.242 16.619 2.166 16.7045 2.09 16.7235C2.014 16.7425 1.9665 16.771 1.9475 16.809C1.9285 16.847 1.9095 16.8755 1.8905 16.8945L1.7765 17.0085L1.6055 17.1225L1.349 17.094L1.007 17.151L0.779 17.208C0.589 17.246 0.437 17.2175 0.323 17.1225C0.209 17.0275 0.114 16.885 0.038 16.695C-0.038 16.581 0 16.486 0.152 16.41L0.209 16.353C0.247 16.315 0.304 16.296 0.38 16.296H0.722L1.178 16.125L1.406 16.068C1.406 15.992 1.425 15.935 1.463 15.897C1.501 15.859 1.558 15.84 1.634 15.84V15.783C1.596 15.707 1.577 15.631 1.577 15.555C1.539 15.479 1.5295 15.422 1.5485 15.384C1.5675 15.346 1.5865 15.327 1.6055 15.327H1.634L1.691 15.498C1.729 15.688 1.786 15.745 1.862 15.669L1.919 15.555C1.957 15.479 2.014 15.441 2.09 15.441L2.204 15.555L2.318 15.441L2.261 15.384C2.261 15.346 2.28 15.327 2.318 15.327L2.546 15.099C2.736 14.871 2.964 14.662 3.23 14.472C3.762 14.054 4.332 13.731 4.94 13.503C5.13 13.313 5.339 13.218 5.567 13.218C5.719 12.952 5.947 12.667 6.251 12.363C6.517 12.173 6.707 12.04 6.821 11.964C6.897 11.812 6.992 11.736 7.106 11.736H7.163L7.277 11.622C7.353 11.584 7.41 11.546 7.448 11.508V11.223C7.448 11.033 7.467 10.881 7.505 10.767C7.543 10.653 7.638 10.596 7.79 10.596L8.018 10.368C7.942 10.216 7.904 10.045 7.904 9.855H7.847C7.771 9.741 7.733 9.627 7.733 9.513C7.619 9.323 7.543 9.171 7.505 9.057H7.334C7.296 9.171 7.201 9.247 7.049 9.285L6.992 9.399C6.84 9.665 6.707 9.8645 6.593 9.9975C6.479 10.1305 6.27 10.292 5.966 10.482C5.776 10.672 5.643 10.881 5.567 11.109C5.529 11.223 5.529 11.337 5.567 11.451L5.51 11.565H5.567C5.567 11.641 5.586 11.679 5.624 11.679H5.681C5.757 11.717 5.795 11.7645 5.795 11.8215C5.795 11.8785 5.738 11.8975 5.624 11.8785C5.51 11.8595 5.4245 11.8215 5.3675 11.7645C5.3105 11.7075 5.263 11.679 5.225 11.679L5.054 11.85C4.978 11.964 4.902 12.0115 4.826 11.9925C4.75 11.9735 4.731 11.945 4.769 11.907L4.826 11.85C4.864 11.774 4.864 11.736 4.826 11.736L4.37 11.85C4.332 11.888 4.2845 11.888 4.2275 11.85C4.1705 11.812 4.18 11.774 4.256 11.736L4.541 11.622C4.541 11.584 4.522 11.565 4.484 11.565C4.332 11.641 4.18 11.66 4.028 11.622L3.743 11.565L3.686 11.508C3.686 11.47 3.705 11.451 3.743 11.451C3.895 11.489 4.085 11.47 4.313 11.394L4.712 11.223L5.168 10.71L5.225 10.596C5.377 10.292 5.5385 10.0165 5.7095 9.7695C5.8805 9.5225 6.061 9.323 6.251 9.171L6.308 8.943C6.384 8.791 6.46 8.658 6.536 8.544C6.612 8.43 6.707 8.278 6.821 8.088L6.992 7.86C7.144 7.632 7.315 7.518 7.505 7.518L7.676 7.347C7.714 7.309 7.733 7.252 7.733 7.176L7.847 7.062L7.79 7.005C7.562 6.815 7.448 6.644 7.448 6.492C7.41 6.226 7.4955 5.998 7.7045 5.808C7.9135 5.618 8.1225 5.5325 8.3315 5.5515C8.5405 5.5705 8.702 5.637 8.816 5.751L8.93 5.865C8.968 5.865 8.987 5.884 8.987 5.922L9.215 6.036V6.207C9.291 6.283 9.329 6.34 9.329 6.378C9.405 6.264 9.519 6.131 9.671 5.979L9.956 5.067C9.956 4.915 9.994 4.763 10.07 4.611L10.184 4.44V4.326L10.355 3.642H10.469L10.64 2.958C10.678 2.844 10.678 2.711 10.64 2.559L10.412 1.989L10.298 1.533Z" fill="black"/>
</svg>
