<svg width="32" height="32" viewBox="0 0 32 32" fill="none" xmlns="http://www.w3.org/2000/svg">
<g opacity="0.7">
<path d="M26.6667 16C26.6667 10.1083 21.8916 5.33334 16 5.33334C10.1084 5.33334 5.33337 10.1083 5.33337 16C5.33337 21.8916 10.1084 26.6667 16 26.6667C16.0626 26.6667 16.1251 26.6667 16.1875 26.6625V18.3625H13.8959V15.6917H16.1875V13.7249C16.1875 11.4458 17.5792 10.2042 19.6126 10.2042C20.5875 10.2042 21.4251 10.275 21.6667 10.3083V12.6917H20.2667C19.1626 12.6917 18.9459 13.2167 18.9459 13.9875V15.6875H21.5918L21.2459 18.3584H18.9459V26.2541C23.4042 24.9749 26.6667 20.8708 26.6667 16Z" fill="white"/>
</g>
</svg>
