<svg width="32" height="32" viewBox="0 0 32 32" fill="none" xmlns="http://www.w3.org/2000/svg">
<g opacity="0.7">
<path d="M14.6666 17.9984L18.1364 16L14.6666 14.0016V17.9984Z" fill="#F7F7F7"/>
<path d="M16 5.33334C10.1099 5.33334 5.33337 10.1099 5.33337 16C5.33337 21.8901 10.1099 26.6667 16 26.6667C21.8902 26.6667 26.6667 21.8901 26.6667 16C26.6667 10.1099 21.8902 5.33334 16 5.33334ZM22.6651 16.0109C22.6651 16.0109 22.6651 18.1741 22.3907 19.2173C22.2368 19.7883 21.7867 20.2384 21.2156 20.3921C20.1726 20.6667 16 20.6667 16 20.6667C16 20.6667 11.8384 20.6667 10.7844 20.3812C10.2134 20.2276 9.76323 19.7772 9.60941 19.2063C9.33484 18.1741 9.33484 16 9.33484 16C9.33484 16 9.33484 13.8369 9.60941 12.7938C9.76307 12.2228 10.2243 11.7616 10.7844 11.6079C11.8275 11.3333 16 11.3333 16 11.3333C16 11.3333 20.1726 11.3333 21.2156 11.6188C21.7867 11.7725 22.2368 12.2228 22.3907 12.7938C22.6762 13.8369 22.6651 16.0109 22.6651 16.0109Z" fill="white"/>
</g>
</svg>
