<svg width="32" height="32" viewBox="0 0 32 32" fill="none" xmlns="http://www.w3.org/2000/svg">
<g opacity="0.7">
<path d="M18.0416 16C18.0416 17.1276 17.1276 18.0416 16 18.0416C14.8724 18.0416 13.9584 17.1276 13.9584 16C13.9584 14.8724 14.8724 13.9584 16 13.9584C17.1276 13.9584 18.0416 14.8724 18.0416 16Z" fill="white"/>
<path d="M20.7748 12.3877C20.6765 12.1217 20.52 11.881 20.3165 11.6834C20.1189 11.48 19.8784 11.3234 19.6123 11.2253C19.3965 11.1414 19.0723 11.0417 18.4751 11.0145C17.8291 10.985 17.6355 10.9787 16 10.9787C14.3644 10.9787 14.1708 10.9849 13.5249 11.0143C12.9277 11.0417 12.6033 11.1414 12.3877 11.2253C12.1216 11.3234 11.8809 11.48 11.6834 11.6834C11.48 11.881 11.3234 12.1216 11.2251 12.3877C11.1413 12.6035 11.0415 12.9279 11.0143 13.5251C10.9849 14.1709 10.9785 14.3645 10.9785 16.0001C10.9785 17.6356 10.9849 17.8293 11.0143 18.4752C11.0415 19.0724 11.1413 19.3967 11.2251 19.6125C11.3234 19.8785 11.4798 20.1192 11.6833 20.3168C11.8808 20.5201 12.1214 20.6768 12.3875 20.7749C12.6033 20.8589 12.9277 20.9587 13.5249 20.9859C14.1708 21.0153 14.3643 21.0215 15.9999 21.0215C17.6356 21.0215 17.8292 21.0153 18.4749 20.9859C19.0721 20.9587 19.3965 20.8589 19.6123 20.7749C20.1465 20.5688 20.5687 20.1467 20.7748 19.6125C20.8585 19.3967 20.9584 19.0724 20.9857 18.4752C21.0152 17.8293 21.0213 17.6356 21.0213 16.0001C21.0213 14.3645 21.0152 14.1709 20.9857 13.5251C20.9585 12.9279 20.8587 12.6035 20.7748 12.3877ZM16 19.1452C14.2628 19.1452 12.8546 17.7372 12.8546 16C12.8546 14.2628 14.2628 12.8548 16 12.8548C17.7369 12.8548 19.1452 14.2628 19.1452 16C19.1452 17.7372 17.7369 19.1452 16 19.1452ZM19.2695 13.4655C18.8636 13.4655 18.5345 13.1364 18.5345 12.7305C18.5345 12.3245 18.8636 11.9954 19.2695 11.9954C19.6755 11.9954 20.0045 12.3245 20.0045 12.7305C20.0044 13.1364 19.6755 13.4655 19.2695 13.4655Z" fill="white"/>
<path d="M16 5.33334C10.1099 5.33334 5.33337 10.1099 5.33337 16C5.33337 21.8901 10.1099 26.6667 16 26.6667C21.8902 26.6667 26.6667 21.8901 26.6667 16C26.6667 10.1099 21.8902 5.33334 16 5.33334ZM22.088 18.5252C22.0584 19.1772 21.9548 19.6224 21.8034 20.012C21.4852 20.8348 20.8348 21.4852 20.012 21.8033C19.6226 21.9548 19.1772 22.0583 18.5254 22.088C17.8723 22.1179 17.6636 22.1251 16.0002 22.1251C14.3366 22.1251 14.1282 22.1179 13.4748 22.088C12.823 22.0583 12.3776 21.9548 11.9882 21.8033C11.5793 21.6496 11.2092 21.4085 10.9032 21.0968C10.5917 20.7911 10.3506 20.4208 10.1968 20.012C10.0455 19.6225 9.94177 19.1772 9.91215 18.5253C9.88204 17.8721 9.87504 17.6635 9.87504 16C9.87504 14.3365 9.88204 14.1279 9.91199 13.4748C9.94161 12.8228 10.0451 12.3776 10.1965 11.988C10.3503 11.5793 10.5915 11.209 10.9032 10.9032C11.209 10.5915 11.5793 10.3504 11.988 10.1966C12.3776 10.0453 12.8228 9.94174 13.4748 9.91196C14.1279 9.88217 14.3366 9.87501 16 9.87501C17.6635 9.87501 17.8722 9.88217 18.5252 9.91212C19.1772 9.94174 19.6224 10.0453 20.012 10.1965C20.4208 10.3503 20.7911 10.5915 21.0971 10.9032C21.4086 11.2092 21.6498 11.5793 21.8034 11.988C21.955 12.3776 22.0584 12.8228 22.0883 13.4748C22.118 14.1279 22.1251 14.3365 22.1251 16C22.1251 17.6635 22.118 17.8721 22.088 18.5252Z" fill="white"/>
</g>
</svg>
